<svg width="27" height="30" viewBox="0 0 27 30" fill="none" xmlns="http://www.w3.org/2000/svg">
<path d="M8.03739 18.1698L21.4114 27.813C18.3776 29.5324 13.9713 29.3839 11.1746 27.3674L1.67427 20.5173C0.775243 19.8691 0.775243 18.8181 1.67427 18.1698C3.43139 16.9029 6.28027 16.9029 8.03739 18.1698Z" fill="black" stroke="black" stroke-width="2"/>
<path d="M15.8256 2.63263L25.326 9.48272C26.225 10.1309 26.225 11.182 25.326 11.8302C23.5688 13.0971 20.72 13.0971 18.9628 11.8302L5.58887 2.1871C8.62264 0.467596 13.0289 0.616109 15.8256 2.63263Z" fill="black" stroke="black" stroke-width="2"/>
<path d="M23.4486 25.6491L4.02695 11.6455C1.2303 9.62897 1.02431 6.45187 3.40904 4.2644L22.8307 18.2681C25.6273 20.2846 25.8333 23.4617 23.4486 25.6491Z" fill="black" stroke="black" stroke-width="2"/>
</svg>
