<svg width="23" height="23" viewBox="0 0 23 23" fill="none" xmlns="http://www.w3.org/2000/svg">
<circle opacity="0.16" cx="11.5" cy="11.5" r="11.5" fill="#FF4842"/>
<path d="M17.2498 11.5C17.2498 11.1472 16.9638 10.8612 16.6109 10.8612C16.2581 10.8612 15.9721 11.1472 15.9721 11.5V12.9695L13.2632 9.77504C13.0613 9.53905 12.7189 9.48243 12.4518 9.64087L9.72372 11.3084L6.88066 7.89671C6.73458 7.72095 6.50583 7.63648 6.28058 7.67511C6.05533 7.71375 5.86781 7.86961 5.78864 8.084C5.70947 8.29839 5.75069 8.53873 5.89677 8.71448L9.09122 12.5478C9.29216 12.7894 9.63893 12.849 9.909 12.6884L12.6434 11.0464L15.199 14.0556H13.4165C13.0636 14.0556 12.7776 14.3416 12.7776 14.6945C12.7776 15.0473 13.0636 15.3334 13.4165 15.3334H16.6109C16.6896 15.3314 16.7673 15.3163 16.8409 15.2887L16.9304 15.2375C16.9637 15.2207 16.9957 15.2015 17.0262 15.18C17.0612 15.1484 17.0914 15.1118 17.1157 15.0714C17.1371 15.0431 17.1563 15.0132 17.1732 14.982C17.1888 14.9474 17.1995 14.9109 17.2051 14.8734C17.231 14.817 17.2462 14.7564 17.2498 14.6945V11.5Z" fill="#FF4842"/>
</svg>
