<svg width="23" height="23" viewBox="0 0 23 23" fill="none" xmlns="http://www.w3.org/2000/svg">
<circle opacity="0.16" cx="11.5" cy="11.5" r="11.5" fill="#54D62C"/>
<path d="M17.2499 8.30558C17.256 8.26106 17.256 8.21593 17.2499 8.17141C17.2443 8.1339 17.2336 8.09735 17.218 8.0628C17.2011 8.03157 17.1819 8.00167 17.1605 7.97335C17.1362 7.93295 17.106 7.89635 17.071 7.86474L16.9944 7.82002C16.9575 7.79252 16.9165 7.77096 16.873 7.75613H16.7452C16.7063 7.71843 16.6608 7.68813 16.611 7.66669H13.4166C13.0637 7.66669 12.7777 7.95273 12.7777 8.30558C12.7777 8.65842 13.0637 8.94446 13.4166 8.94446H15.2246L12.6691 11.9536L9.90907 10.3117C9.63901 10.1511 9.29223 10.2107 9.09129 10.4522L5.89685 14.2856C5.7882 14.416 5.7359 14.5842 5.75148 14.7532C5.76706 14.9222 5.84925 15.0781 5.97991 15.1864C6.09485 15.2817 6.23952 15.3336 6.38879 15.3334C6.57882 15.3337 6.75912 15.2494 6.88074 15.1034L9.72379 11.6917L12.4519 13.3272C12.719 13.4857 13.0613 13.4291 13.2632 13.1931L15.9721 10.0306V11.5C15.9721 11.8529 16.2582 12.1389 16.611 12.1389C16.9639 12.1389 17.2499 11.8529 17.2499 11.5V8.30558Z" fill="#54D62C"/>
</svg>
