<svg width="113" height="26" viewBox="0 0 113 26" fill="none" xmlns="http://www.w3.org/2000/svg">
<rect width="113" height="26" rx="8" fill="#CFD2F5"/>
<path d="M25.11 7.738C25.838 7.738 26.4843 7.88733 27.049 8.186C27.6137 8.48467 28.0663 8.886 28.407 9.39C28.7523 9.894 28.9577 10.4517 29.023 11.063H27.427C27.357 10.6803 27.2217 10.335 27.021 10.027C26.825 9.71433 26.5637 9.46933 26.237 9.292C25.9103 9.11 25.523 9.019 25.075 9.019C24.501 9.019 24.0133 9.15433 23.612 9.425C23.2107 9.69567 22.905 10.118 22.695 10.692C22.4897 11.266 22.387 12.0057 22.387 12.911C22.387 14.2783 22.618 15.2793 23.08 15.914C23.542 16.544 24.207 16.859 25.075 16.859C25.523 16.859 25.9103 16.7633 26.237 16.572C26.5637 16.376 26.825 16.117 27.021 15.795C27.2217 15.4683 27.357 15.1137 27.427 14.731H29.023C28.967 15.1743 28.8503 15.6013 28.673 16.012C28.4957 16.418 28.2483 16.782 27.931 17.104C27.6183 17.426 27.2287 17.6803 26.762 17.867C26.2953 18.049 25.7447 18.14 25.11 18.14C24.1953 18.14 23.4113 17.93 22.758 17.51C22.1047 17.0853 21.603 16.4833 21.253 15.704C20.9077 14.92 20.735 13.982 20.735 12.89C20.735 11.8027 20.9077 10.8763 21.253 10.111C21.5983 9.341 22.0977 8.753 22.751 8.347C23.4043 7.941 24.1907 7.738 25.11 7.738ZM33.6894 18.14C33.0127 18.14 32.42 17.9953 31.9114 17.706C31.4074 17.412 31.0154 16.9873 30.7354 16.432C30.46 15.8767 30.3224 15.2047 30.3224 14.416C30.3224 13.6553 30.453 12.9903 30.7144 12.421C30.9804 11.8517 31.3654 11.4107 31.8694 11.098C32.3734 10.7807 32.9824 10.622 33.6964 10.622C34.3777 10.622 34.968 10.7713 35.4674 11.07C35.9667 11.364 36.354 11.7957 36.6294 12.365C36.9047 12.9297 37.0424 13.6133 37.0424 14.416C37.0424 15.1487 36.9117 15.795 36.6504 16.355C36.3937 16.915 36.0157 17.3537 35.5164 17.671C35.0217 17.9837 34.4127 18.14 33.6894 18.14ZM33.6964 16.985C34.107 16.985 34.45 16.8777 34.7254 16.663C35.0054 16.4437 35.2154 16.138 35.3554 15.746C35.4954 15.3493 35.5654 14.892 35.5654 14.374C35.5654 13.8933 35.5024 13.457 35.3764 13.065C35.255 12.6683 35.0567 12.3533 34.7814 12.12C34.506 11.8867 34.1444 11.77 33.6964 11.77C33.2764 11.77 32.9264 11.8773 32.6464 12.092C32.3664 12.302 32.154 12.603 32.0094 12.995C31.8694 13.3823 31.7994 13.842 31.7994 14.374C31.7994 14.8453 31.8624 15.2793 31.9884 15.676C32.1144 16.0727 32.3174 16.39 32.5974 16.628C32.8774 16.866 33.2437 16.985 33.6964 16.985ZM38.6517 18V10.762H40.1077V11.805C40.3131 11.4877 40.5931 11.2123 40.9477 10.979C41.3024 10.741 41.7597 10.622 42.3197 10.622C42.5811 10.622 42.8447 10.6663 43.1107 10.755C43.3814 10.8437 43.6287 10.9767 43.8527 11.154C44.0814 11.3267 44.2611 11.5413 44.3917 11.798C44.6204 11.4527 44.9261 11.1703 45.3087 10.951C45.6914 10.7317 46.1207 10.622 46.5967 10.622C46.8534 10.622 47.1194 10.664 47.3947 10.748C47.6701 10.8273 47.9244 10.965 48.1577 11.161C48.3957 11.3523 48.5871 11.6183 48.7317 11.959C48.8811 12.2997 48.9557 12.7313 48.9557 13.254V18H47.4507V13.415C47.4507 13.0183 47.3831 12.708 47.2477 12.484C47.1171 12.26 46.9444 12.1037 46.7297 12.015C46.5197 11.9217 46.2957 11.875 46.0577 11.875C45.8431 11.875 45.6191 11.917 45.3857 12.001C45.1524 12.085 44.9541 12.225 44.7907 12.421C44.6274 12.617 44.5457 12.883 44.5457 13.219V18H43.0477V13.093C43.0477 12.827 42.9754 12.603 42.8307 12.421C42.6907 12.239 42.5134 12.1037 42.2987 12.015C42.0887 11.9217 41.8787 11.875 41.6687 11.875C41.4354 11.875 41.2021 11.9217 40.9687 12.015C40.7354 12.1083 40.5394 12.2553 40.3807 12.456C40.2267 12.652 40.1497 12.9063 40.1497 13.219V18H38.6517ZM50.8744 18V10.762H52.3304V11.805C52.5357 11.4877 52.8157 11.2123 53.1704 10.979C53.525 10.741 53.9824 10.622 54.5424 10.622C54.8037 10.622 55.0674 10.6663 55.3334 10.755C55.604 10.8437 55.8514 10.9767 56.0754 11.154C56.304 11.3267 56.4837 11.5413 56.6144 11.798C56.843 11.4527 57.1487 11.1703 57.5314 10.951C57.914 10.7317 58.3434 10.622 58.8194 10.622C59.076 10.622 59.342 10.664 59.6174 10.748C59.8927 10.8273 60.147 10.965 60.3804 11.161C60.6184 11.3523 60.8097 11.6183 60.9544 11.959C61.1037 12.2997 61.1784 12.7313 61.1784 13.254V18H59.6734V13.415C59.6734 13.0183 59.6057 12.708 59.4704 12.484C59.3397 12.26 59.167 12.1037 58.9524 12.015C58.7424 11.9217 58.5184 11.875 58.2804 11.875C58.0657 11.875 57.8417 11.917 57.6084 12.001C57.375 12.085 57.1767 12.225 57.0134 12.421C56.85 12.617 56.7684 12.883 56.7684 13.219V18H55.2704V13.093C55.2704 12.827 55.198 12.603 55.0534 12.421C54.9134 12.239 54.736 12.1037 54.5214 12.015C54.3114 11.9217 54.1014 11.875 53.8914 11.875C53.658 11.875 53.4247 11.9217 53.1914 12.015C52.958 12.1083 52.762 12.2553 52.6034 12.456C52.4494 12.652 52.3724 12.9063 52.3724 13.219V18H50.8744ZM65.6477 18.14C65.2837 18.1353 64.936 18.0817 64.6047 17.979C64.2733 17.8763 63.977 17.7223 63.7157 17.517C63.459 17.3117 63.2537 17.0573 63.0997 16.754C62.9503 16.4507 62.8757 16.0983 62.8757 15.697V10.762H64.3807V15.536C64.3807 15.97 64.516 16.3223 64.7867 16.593C65.0573 16.8637 65.4657 16.999 66.0117 16.999C66.5063 16.999 66.903 16.8707 67.2017 16.614C67.5003 16.3527 67.6497 15.9723 67.6497 15.473V10.762H69.1407V18H67.9787L67.8107 16.6C67.7267 16.978 67.575 17.2813 67.3557 17.51C67.141 17.734 66.8843 17.8973 66.5857 18C66.2917 18.098 65.979 18.1447 65.6477 18.14ZM71.1498 18V10.762H72.6128V11.805C72.7294 11.609 72.8858 11.4247 73.0818 11.252C73.2824 11.0793 73.5274 10.9393 73.8168 10.832C74.1108 10.7247 74.4491 10.671 74.8318 10.671C75.2844 10.671 75.7021 10.762 76.0848 10.944C76.4721 11.1213 76.7824 11.4013 77.0158 11.784C77.2491 12.162 77.3658 12.652 77.3658 13.254V18H75.8678V13.415C75.8678 12.897 75.7278 12.512 75.4478 12.26C75.1724 12.008 74.8154 11.882 74.3768 11.882C74.0828 11.882 73.8028 11.931 73.5368 12.029C73.2708 12.127 73.0561 12.2763 72.8928 12.477C72.7294 12.673 72.6478 12.9203 72.6478 13.219V18H71.1498ZM80.8665 10.762V18H79.4245V10.762H80.8665ZM80.8945 7.885V9.362H79.3895V7.885H80.8945ZM86.965 11.84H85.341L85.348 16.159C85.348 16.397 85.3713 16.572 85.418 16.684C85.4693 16.7913 85.5533 16.8613 85.67 16.894C85.7913 16.922 85.9546 16.936 86.16 16.936H87.007V17.909C86.9136 17.9463 86.7736 17.979 86.587 18.007C86.405 18.035 86.1693 18.049 85.88 18.049C85.3433 18.049 84.9256 17.9767 84.627 17.832C84.333 17.6873 84.1276 17.4797 84.011 17.209C83.899 16.9337 83.843 16.6023 83.843 16.215V11.84H82.667V10.762H83.885L84.256 8.634H85.341V10.755H86.965V11.84ZM89.5988 20.31C89.1555 20.31 88.8475 20.2773 88.6748 20.212C88.5068 20.1467 88.4228 20.114 88.4228 20.114V19.148L89.1578 19.162C89.4378 19.176 89.6665 19.1597 89.8438 19.113C90.0258 19.0663 90.1681 19.001 90.2708 18.917C90.3781 18.8377 90.4598 18.7513 90.5158 18.658C90.5718 18.5647 90.6138 18.4783 90.6418 18.399L90.8658 17.79L88.0448 10.762H89.5428L91.5728 16.11L93.5888 10.762H95.0588L92.0418 18.406C91.8365 18.91 91.6101 19.2997 91.3628 19.575C91.1201 19.8503 90.8518 20.0417 90.5578 20.149C90.2638 20.2563 89.9441 20.31 89.5988 20.31Z" fill="#434991"/>
</svg>
