<svg width="103" height="26" viewBox="0 0 103 26" fill="none" xmlns="http://www.w3.org/2000/svg">
<rect width="103" height="26" rx="8" fill="#CFD2F5"/>
<path d="M25.11 7.738C25.838 7.738 26.4843 7.88733 27.049 8.186C27.6137 8.48467 28.0663 8.886 28.407 9.39C28.7523 9.894 28.9577 10.4517 29.023 11.063H27.427C27.357 10.6803 27.2217 10.335 27.021 10.027C26.825 9.71433 26.5637 9.46933 26.237 9.292C25.9103 9.11 25.523 9.019 25.075 9.019C24.501 9.019 24.0133 9.15433 23.612 9.425C23.2107 9.69567 22.905 10.118 22.695 10.692C22.4897 11.266 22.387 12.0057 22.387 12.911C22.387 14.2783 22.618 15.2793 23.08 15.914C23.542 16.544 24.207 16.859 25.075 16.859C25.523 16.859 25.9103 16.7633 26.237 16.572C26.5637 16.376 26.825 16.117 27.021 15.795C27.2217 15.4683 27.357 15.1137 27.427 14.731H29.023C28.967 15.1743 28.8503 15.6013 28.673 16.012C28.4957 16.418 28.2483 16.782 27.931 17.104C27.6183 17.426 27.2287 17.6803 26.762 17.867C26.2953 18.049 25.7447 18.14 25.11 18.14C24.1953 18.14 23.4113 17.93 22.758 17.51C22.1047 17.0853 21.603 16.4833 21.253 15.704C20.9077 14.92 20.735 13.982 20.735 12.89C20.735 11.8027 20.9077 10.8763 21.253 10.111C21.5983 9.341 22.0977 8.753 22.751 8.347C23.4043 7.941 24.1907 7.738 25.11 7.738ZM33.6894 18.14C33.0127 18.14 32.42 17.9953 31.9114 17.706C31.4074 17.412 31.0154 16.9873 30.7354 16.432C30.46 15.8767 30.3224 15.2047 30.3224 14.416C30.3224 13.6553 30.453 12.9903 30.7144 12.421C30.9804 11.8517 31.3654 11.4107 31.8694 11.098C32.3734 10.7807 32.9824 10.622 33.6964 10.622C34.3777 10.622 34.968 10.7713 35.4674 11.07C35.9667 11.364 36.354 11.7957 36.6294 12.365C36.9047 12.9297 37.0424 13.6133 37.0424 14.416C37.0424 15.1487 36.9117 15.795 36.6504 16.355C36.3937 16.915 36.0157 17.3537 35.5164 17.671C35.0217 17.9837 34.4127 18.14 33.6894 18.14ZM33.6964 16.985C34.107 16.985 34.45 16.8777 34.7254 16.663C35.0054 16.4437 35.2154 16.138 35.3554 15.746C35.4954 15.3493 35.5654 14.892 35.5654 14.374C35.5654 13.8933 35.5024 13.457 35.3764 13.065C35.255 12.6683 35.0567 12.3533 34.7814 12.12C34.506 11.8867 34.1444 11.77 33.6964 11.77C33.2764 11.77 32.9264 11.8773 32.6464 12.092C32.3664 12.302 32.154 12.603 32.0094 12.995C31.8694 13.3823 31.7994 13.842 31.7994 14.374C31.7994 14.8453 31.8624 15.2793 31.9884 15.676C32.1144 16.0727 32.3174 16.39 32.5974 16.628C32.8774 16.866 33.2437 16.985 33.6964 16.985ZM38.6517 18V10.762H40.1077V11.805C40.3131 11.4877 40.5931 11.2123 40.9477 10.979C41.3024 10.741 41.7597 10.622 42.3197 10.622C42.5811 10.622 42.8447 10.6663 43.1107 10.755C43.3814 10.8437 43.6287 10.9767 43.8527 11.154C44.0814 11.3267 44.2611 11.5413 44.3917 11.798C44.6204 11.4527 44.9261 11.1703 45.3087 10.951C45.6914 10.7317 46.1207 10.622 46.5967 10.622C46.8534 10.622 47.1194 10.664 47.3947 10.748C47.6701 10.8273 47.9244 10.965 48.1577 11.161C48.3957 11.3523 48.5871 11.6183 48.7317 11.959C48.8811 12.2997 48.9557 12.7313 48.9557 13.254V18H47.4507V13.415C47.4507 13.0183 47.3831 12.708 47.2477 12.484C47.1171 12.26 46.9444 12.1037 46.7297 12.015C46.5197 11.9217 46.2957 11.875 46.0577 11.875C45.8431 11.875 45.6191 11.917 45.3857 12.001C45.1524 12.085 44.9541 12.225 44.7907 12.421C44.6274 12.617 44.5457 12.883 44.5457 13.219V18H43.0477V13.093C43.0477 12.827 42.9754 12.603 42.8307 12.421C42.6907 12.239 42.5134 12.1037 42.2987 12.015C42.0887 11.9217 41.8787 11.875 41.6687 11.875C41.4354 11.875 41.2021 11.9217 40.9687 12.015C40.7354 12.1083 40.5394 12.2553 40.3807 12.456C40.2267 12.652 40.1497 12.9063 40.1497 13.219V18H38.6517ZM53.425 18.14C53.061 18.1353 52.7133 18.0817 52.382 17.979C52.0507 17.8763 51.7543 17.7223 51.493 17.517C51.2363 17.3117 51.031 17.0573 50.877 16.754C50.7277 16.4507 50.653 16.0983 50.653 15.697V10.762H52.158V15.536C52.158 15.97 52.2933 16.3223 52.564 16.593C52.8347 16.8637 53.243 16.999 53.789 16.999C54.2837 16.999 54.6803 16.8707 54.979 16.614C55.2777 16.3527 55.427 15.9723 55.427 15.473V10.762H56.918V18H55.756L55.588 16.6C55.504 16.978 55.3523 17.2813 55.133 17.51C54.9183 17.734 54.6617 17.8973 54.363 18C54.069 18.098 53.7563 18.1447 53.425 18.14ZM58.9271 18V10.762H60.3901V11.805C60.5068 11.609 60.6631 11.4247 60.8591 11.252C61.0598 11.0793 61.3048 10.9393 61.5941 10.832C61.8881 10.7247 62.2264 10.671 62.6091 10.671C63.0618 10.671 63.4794 10.762 63.8621 10.944C64.2494 11.1213 64.5598 11.4013 64.7931 11.784C65.0264 12.162 65.1431 12.652 65.1431 13.254V18H63.6451V13.415C63.6451 12.897 63.5051 12.512 63.2251 12.26C62.9498 12.008 62.5928 11.882 62.1541 11.882C61.8601 11.882 61.5801 11.931 61.3141 12.029C61.0481 12.127 60.8334 12.2763 60.6701 12.477C60.5068 12.673 60.4251 12.9203 60.4251 13.219V18H58.9271ZM68.6439 10.762V18H67.2019V10.762H68.6439ZM68.6719 7.885V9.362H67.1669V7.885H68.6719ZM74.7423 11.84H73.1183L73.1253 16.159C73.1253 16.397 73.1486 16.572 73.1953 16.684C73.2466 16.7913 73.3306 16.8613 73.4473 16.894C73.5686 16.922 73.732 16.936 73.9373 16.936H74.7843V17.909C74.691 17.9463 74.551 17.979 74.3643 18.007C74.1823 18.035 73.9466 18.049 73.6573 18.049C73.1206 18.049 72.703 17.9767 72.4043 17.832C72.1103 17.6873 71.905 17.4797 71.7883 17.209C71.6763 16.9337 71.6203 16.6023 71.6203 16.215V11.84H70.4443V10.762H71.6623L72.0333 8.634H73.1183V10.755H74.7423V11.84ZM77.3762 20.31C76.9328 20.31 76.6248 20.2773 76.4522 20.212C76.2842 20.1467 76.2002 20.114 76.2002 20.114V19.148L76.9352 19.162C77.2152 19.176 77.4438 19.1597 77.6212 19.113C77.8032 19.0663 77.9455 19.001 78.0482 18.917C78.1555 18.8377 78.2372 18.7513 78.2932 18.658C78.3492 18.5647 78.3912 18.4783 78.4192 18.399L78.6432 17.79L75.8222 10.762H77.3202L79.3502 16.11L81.3662 10.762H82.8362L79.8192 18.406C79.6138 18.91 79.3875 19.2997 79.1402 19.575C78.8975 19.8503 78.6292 20.0417 78.3352 20.149C78.0412 20.2563 77.7215 20.31 77.3762 20.31Z" fill="#434991"/>
</svg>
