<svg width="74" height="26" viewBox="0 0 74 26" fill="none" xmlns="http://www.w3.org/2000/svg">
<rect width="74" height="26" rx="8" fill="#F9F4DD"/>
<path d="M25.11 7.738C25.838 7.738 26.4843 7.88733 27.049 8.186C27.6137 8.48467 28.0663 8.886 28.407 9.39C28.7523 9.894 28.9577 10.4517 29.023 11.063H27.427C27.357 10.6803 27.2217 10.335 27.021 10.027C26.825 9.71433 26.5637 9.46933 26.237 9.292C25.9103 9.11 25.523 9.019 25.075 9.019C24.501 9.019 24.0133 9.15433 23.612 9.425C23.2107 9.69567 22.905 10.118 22.695 10.692C22.4897 11.266 22.387 12.0057 22.387 12.911C22.387 14.2783 22.618 15.2793 23.08 15.914C23.542 16.544 24.207 16.859 25.075 16.859C25.523 16.859 25.9103 16.7633 26.237 16.572C26.5637 16.376 26.825 16.117 27.021 15.795C27.2217 15.4683 27.357 15.1137 27.427 14.731H29.023C28.967 15.1743 28.8503 15.6013 28.673 16.012C28.4957 16.418 28.2483 16.782 27.931 17.104C27.6183 17.426 27.2287 17.6803 26.762 17.867C26.2953 18.049 25.7447 18.14 25.11 18.14C24.1953 18.14 23.4113 17.93 22.758 17.51C22.1047 17.0853 21.603 16.4833 21.253 15.704C20.9077 14.92 20.735 13.982 20.735 12.89C20.735 11.8027 20.9077 10.8763 21.253 10.111C21.5983 9.341 22.0977 8.753 22.751 8.347C23.4043 7.941 24.1907 7.738 25.11 7.738ZM33.6894 18.14C33.0127 18.14 32.42 17.9953 31.9114 17.706C31.4074 17.412 31.0154 16.9873 30.7354 16.432C30.46 15.8767 30.3224 15.2047 30.3224 14.416C30.3224 13.6553 30.453 12.9903 30.7144 12.421C30.9804 11.8517 31.3654 11.4107 31.8694 11.098C32.3734 10.7807 32.9824 10.622 33.6964 10.622C34.3777 10.622 34.968 10.7713 35.4674 11.07C35.9667 11.364 36.354 11.7957 36.6294 12.365C36.9047 12.9297 37.0424 13.6133 37.0424 14.416C37.0424 15.1487 36.9117 15.795 36.6504 16.355C36.3937 16.915 36.0157 17.3537 35.5164 17.671C35.0217 17.9837 34.4127 18.14 33.6894 18.14ZM33.6964 16.985C34.107 16.985 34.45 16.8777 34.7254 16.663C35.0054 16.4437 35.2154 16.138 35.3554 15.746C35.4954 15.3493 35.5654 14.892 35.5654 14.374C35.5654 13.8933 35.5024 13.457 35.3764 13.065C35.255 12.6683 35.0567 12.3533 34.7814 12.12C34.506 11.8867 34.1444 11.77 33.6964 11.77C33.2764 11.77 32.9264 11.8773 32.6464 12.092C32.3664 12.302 32.154 12.603 32.0094 12.995C31.8694 13.3823 31.7994 13.842 31.7994 14.374C31.7994 14.8453 31.8624 15.2793 31.9884 15.676C32.1144 16.0727 32.3174 16.39 32.5974 16.628C32.8774 16.866 33.2437 16.985 33.6964 16.985ZM38.6517 18V10.762H40.0867V12.246C40.2081 11.8913 40.3761 11.595 40.5907 11.357C40.8101 11.1143 41.0644 10.9323 41.3537 10.811C41.6431 10.685 41.9487 10.622 42.2707 10.622C42.3687 10.622 42.4621 10.629 42.5507 10.643C42.6394 10.6523 42.7094 10.671 42.7607 10.699V12.141C42.7001 12.113 42.6207 12.0943 42.5227 12.085C42.4294 12.0757 42.3477 12.0687 42.2777 12.064C41.9604 12.0407 41.6711 12.057 41.4097 12.113C41.1484 12.169 40.9221 12.2623 40.7307 12.393C40.5441 12.5237 40.3994 12.694 40.2967 12.904C40.1987 13.114 40.1497 13.3613 40.1497 13.646V18H38.6517ZM45.1588 14.731C45.1588 15.165 45.2288 15.5547 45.3688 15.9C45.5134 16.2407 45.7304 16.5113 46.0198 16.712C46.3091 16.908 46.6684 17.006 47.0978 17.006C47.5271 17.006 47.8981 16.908 48.2108 16.712C48.5281 16.516 48.7358 16.2243 48.8338 15.837H50.2198C50.1358 16.3317 49.9374 16.7517 49.6248 17.097C49.3168 17.4423 48.9434 17.7037 48.5048 17.881C48.0661 18.0537 47.6064 18.14 47.1258 18.14C46.4398 18.14 45.8354 17.993 45.3128 17.699C44.7901 17.4003 44.3818 16.9757 44.0878 16.425C43.7984 15.8743 43.6538 15.2187 43.6538 14.458C43.6538 13.7067 43.7868 13.044 44.0528 12.47C44.3188 11.8913 44.7038 11.4387 45.2078 11.112C45.7118 10.7853 46.3184 10.622 47.0278 10.622C47.7278 10.622 48.3158 10.7713 48.7918 11.07C49.2724 11.3687 49.6364 11.7887 49.8838 12.33C50.1311 12.8667 50.2548 13.5013 50.2548 14.234V14.731H45.1588ZM45.1588 13.758H48.8268C48.8268 13.38 48.7614 13.037 48.6308 12.729C48.5001 12.4163 48.2994 12.1713 48.0288 11.994C47.7628 11.812 47.4268 11.721 47.0208 11.721C46.6054 11.721 46.2601 11.8213 45.9848 12.022C45.7094 12.2227 45.5018 12.4793 45.3618 12.792C45.2264 13.1047 45.1588 13.4267 45.1588 13.758Z" fill="#C1A000"/>
</svg>
