<svg width="767" height="795" viewBox="0 0 767 795" fill="none" xmlns="http://www.w3.org/2000/svg">
<path d="M127.477 436.397C127.477 430.943 127.477 425.489 127.477 418.218C127.477 303.683 203.835 203.692 314.732 172.786C323.822 170.967 329.276 160.06 327.459 150.969C325.641 141.879 316.09 149.152 307 150.969C179.738 185.511 106.5 287.319 106.5 418.216C106.5 425.489 106.5 452.229 106.5 459.5C108.319 490.407 71.2709 519.32 44 537.5C34.9102 506.593 18 452.758 18 418.216C18 247.322 160.201 85.4524 327.459 60L327.459 90.9727C327.459 98.2455 331.095 105.517 338.367 107.335C340.186 109.154 343.822 109.154 345.64 109.154C351.094 109.154 354.73 107.335 358.366 103.7L394.726 67.339C401.999 60.0662 401.999 49.1594 394.726 41.8866L358.366 5.52745C352.911 0.0732675 345.64 -1.74532 338.367 1.89185C331.095 3.71043 327.459 10.9816 327.459 18.2544V40.0712C140.204 67.3405 0.217285 227.326 0.217285 418.218C0.217285 463.668 7.49006 509.119 23.8511 552.751C25.6696 558.205 29.3052 561.84 34.7594 563.659C36.578 563.659 38.395 563.659 42.0322 563.659C43.8508 563.659 47.4864 563.659 49.305 561.841C100.208 540.024 131.115 489.119 127.477 436.397Z" fill="black"/>
<path d="M672.247 635.014L664.974 629.56C621.342 600.472 564.983 600.472 519.533 629.56C479.536 655.013 432.267 675.011 385 675.011C321.37 675.011 259.556 644.104 212.289 600.471C205.016 593.198 194.109 593.198 186.837 602.289C179.564 609.562 185.909 609.727 195 617C247.722 666.086 312.278 695.5 385 695.5C439.54 695.5 498.051 673.088 543.5 644C574.407 625.82 624.912 638.652 654 653.196C590.37 720.463 479.538 777.5 385 777.5C283.19 777.5 177.449 724.098 112 647.741L137.749 629.56C143.203 625.925 146.839 618.652 145.022 611.381C143.203 604.108 137.749 598.654 130.478 596.837L79.573 587.747C70.4832 585.928 59.5748 593.201 57.7562 602.291L48.6664 653.196C46.8479 660.468 50.485 667.74 55.9392 671.375C59.5748 673.194 63.212 675.011 65.029 675.011C68.6646 675.011 72.3018 673.192 75.9374 671.375L92.2999 660.467C166.838 745.914 270.465 795 385 795C495.899 795 603.161 745.914 675.882 662.285C679.518 658.65 681.337 653.196 679.518 647.741C679.52 642.287 675.882 638.65 672.247 635.014Z" fill="black"/>
<path d="M755.875 560.476L739.512 553.203C757.692 507.753 766.783 462.302 766.783 413.216C766.783 233.233 637.704 75.0659 461.356 38.7052C455.902 36.8866 450.448 38.7052 446.812 42.3408C441.358 45.9764 439.54 51.4306 439.54 56.8847V75.0643C439.54 122.333 464.992 156.365 508.624 180C588.616 223.632 650.5 320.497 650.5 413.216C650.5 436.85 640.954 458.683 635.5 480.5C633.681 489.59 634.067 500.482 643.157 502.3C652.247 504.119 656.181 496.091 658 487C665.273 461.548 670.428 438.668 670.428 411.399C670.428 305.954 601.343 204.405 508.624 153.5C479.536 137.137 472.817 96.2236 471 63.5C620.077 103.496 748.5 253.152 748.5 409.5C748.5 453.132 734.861 505.004 718.5 545L690.426 529.569C683.153 525.934 675.882 527.751 670.428 533.205C664.974 538.659 663.155 545.93 664.974 553.203L683.153 602.289C684.972 609.562 692.243 615.015 699.516 615.015C701.334 615.015 703.151 615.015 704.97 613.196L754.056 595.017C761.329 593.198 764.964 585.927 766.781 578.654C766.783 571.384 763.147 564.112 755.875 560.476Z" fill="black"/>
<path d="M259.558 458.667C263.194 464.121 268.648 467.757 275.921 467.757H366.822C377.73 467.757 385.001 460.484 385.001 449.577C385.001 438.67 375.91 431.397 365.003 431.397H292L394.093 291.41L385.003 375.038C385.003 380.493 386.821 385.947 388.638 389.582C390.455 393.218 397.728 395.037 403.182 395.037H461.358L366.822 563.5L377.73 524.115C379.549 515.026 372.276 505.936 361.367 504.117C352.278 502.299 343.188 509.571 341.369 520.48L330.461 611.381C328.642 620.471 334.096 627.743 343.186 631.379C345.005 631.379 346.822 633.198 348.64 633.198C354.095 633.198 361.366 629.562 365.003 624.108L510.444 387.765C514.08 382.311 514.08 375.039 510.444 369.586C506.809 362.313 501.355 358.678 494.082 358.678H412.5L439.542 215.055C441.36 205.965 435.906 198.692 426.815 195.057C419.542 191.421 410.452 195.057 404.998 202.329L259.556 438.672C257.739 445.941 257.739 453.214 259.558 458.667Z" fill="black"/>
</svg>
