<svg width="612" height="686" viewBox="0 0 612 686" fill="none" xmlns="http://www.w3.org/2000/svg">
<path d="M439.648 342.938C344.953 342.938 268.188 419.703 268.188 514.398C268.188 609.094 344.953 685.859 439.648 685.859C534.344 685.859 611.109 609.094 611.109 514.398C611.109 419.703 534.344 342.938 439.648 342.938ZM439.648 660.5C376.609 660.5 297 577.438 297 514.398C297 451.359 376.609 372 439.648 372C502.68 372 584 451.359 584 514.398C584 577.438 502.68 660.5 439.648 660.5Z" fill="black"/>
<path d="M430.586 546L377.5 501.5L356.578 523.453L434.578 592.414L524.5 487.5L500 464.5L430.586 546ZM38.5001 606C20.1251 575.109 21.3361 507.578 38.5001 476L203.5 171.57H339.5L417 306L430.586 297.5L356.578 171.57H413.531V147.5H356.578L442.101 0.140625H99.2342L184.5 147.5H127.812V171.57H184.5L32.5003 447C5.63309 496.484 -14.2812 557.617 14.5 606C43.2812 654.383 86.7264 685.859 143.015 685.859H241.953V665H143.015C107.062 664.992 56.8751 636.906 38.5001 606ZM140.5 24.5H402.5L339.5 147.5H203.5L140.5 24.5Z" fill="black"/>
</svg>
