<svg width="27" height="26" viewBox="0 0 27 26" fill="none" xmlns="http://www.w3.org/2000/svg">
<ellipse cx="13" cy="12.5" rx="7" ry="6.5" fill="white"/>
<rect x="12" width="3" height="5" rx="1.5" fill="white"/>
<rect x="21.915" y="3" width="3" height="5" rx="1.5" transform="rotate(51.5462 21.915 3)" fill="white"/>
<rect x="25.999" y="11" width="3" height="5" rx="1.5" transform="rotate(88.7664 25.999 11)" fill="white"/>
<rect x="23.5156" y="20.8238" width="3" height="5" rx="1.5" transform="rotate(139.886 23.5156 20.8238)" fill="white"/>
<rect x="15.1348" y="24.9982" width="3" height="5" rx="1.5" transform="rotate(178.441 15.1348 24.9982)" fill="white"/>
<rect x="5.09375" y="22.6381" width="3" height="5" rx="1.5" transform="rotate(-134.257 5.09375 22.6381)" fill="white"/>
<rect x="0.0742188" y="14.1233" width="3" height="5" rx="1.5" transform="rotate(-91.4236 0.0742188 14.1233)" fill="white"/>
<rect x="3" y="4.20172" width="3" height="5" rx="1.5" transform="rotate(-47.2155 3 4.20172)" fill="white"/>
</svg>
